# Blender 5.0.1
# www.blender.org
mtllib world.mtl
o Plane
v -73.898239 0.000000 73.898239
v 73.898239 0.000000 73.898239
v -73.898239 0.000000 -73.898239
v 73.898239 0.000000 -73.898239
v -73.898239 -0.100000 73.898239
v 73.898239 -0.100000 73.898239
v -73.898239 -0.100000 -73.898239
v 73.898239 -0.100000 -73.898239
vn -0.0000 1.0000 -0.0000
vn -0.0000 -1.0000 -0.0000
vn -1.0000 -0.0000 -0.0000
vn -0.0000 -0.0000 1.0000
vn 1.0000 -0.0000 -0.0000
vn -0.0000 -0.0000 -1.0000
vt 0.000998 0.999002
vt 0.000998 0.000998
vt 0.999002 0.000998
vt 0.999002 0.999002
s 0
usemtl Material.001
f 1/1/1 2/2/1 4/3/1 3/4/1
f 5/1/2 7/4/2 8/3/2 6/2/2
f 1/1/3 3/4/3 7/4/3 5/1/3
f 2/2/4 1/1/4 5/1/4 6/2/4
f 4/3/5 2/2/5 6/2/5 8/3/5
f 3/4/6 4/3/6 8/3/6 7/4/6
